<svg width="735" height="710" viewBox="0 0 735 710" fill="none" xmlns="http://www.w3.org/2000/svg">
<path d="M191.904 150H193.992C212.776 150 227.983 165.207 227.983 183.992C227.983 202.776 212.776 217.983 193.992 217.983C175.207 217.983 160 202.776 160 183.992V181.904C160 164.312 174.312 150 191.904 150Z" fill="#F05023"/>
<path d="M343.382 183.992C343.382 165.219 328.163 150 309.39 150C290.617 150 275.398 165.219 275.398 183.992C275.398 202.765 290.617 217.983 309.39 217.983C328.163 217.983 343.382 202.765 343.382 183.992Z" fill="#F05023"/>
<path d="M227.983 297.884C227.983 279.111 212.765 263.892 193.992 263.892C175.219 263.892 160 279.111 160 297.884C160 316.657 175.219 331.875 193.992 331.875C212.765 331.875 227.983 316.657 227.983 297.884Z" fill="#F05023"/>
<path d="M343.382 297.884C343.382 279.111 328.163 263.892 309.39 263.892C290.617 263.892 275.398 279.111 275.398 297.884C275.398 316.657 290.617 331.875 309.39 331.875C328.163 331.875 343.382 316.657 343.382 297.884Z" fill="#F05023"/>
<path d="M458.921 183.992C458.921 165.219 443.702 150 424.929 150C406.156 150 390.938 165.219 390.938 183.992C390.938 202.765 406.156 217.983 424.929 217.983C443.702 217.983 458.921 202.765 458.921 183.992Z" fill="#F05023"/>
<path d="M458.921 297.884C458.921 279.111 443.702 263.892 424.929 263.892C406.156 263.892 390.938 279.111 390.938 297.884C390.938 316.657 406.156 331.875 424.929 331.875C443.702 331.875 458.921 316.657 458.921 297.884Z" fill="#F05023"/>
<path d="M227.983 411.641C227.983 392.868 212.765 377.65 193.992 377.65C175.219 377.65 160 392.868 160 411.641C160 430.414 175.219 445.633 193.992 445.633C212.765 445.633 227.983 430.414 227.983 411.641Z" fill="#F05023"/>
<path d="M343.382 411.641C343.382 392.868 328.163 377.65 309.39 377.65C290.617 377.65 275.398 392.868 275.398 411.641C275.398 430.414 290.617 445.633 309.39 445.633C328.163 445.633 343.382 430.414 343.382 411.641Z" fill="#F05023"/>
<path d="M458.921 411.641C458.921 392.868 443.702 377.65 424.929 377.65C406.156 377.65 390.938 392.868 390.938 411.641C390.938 430.414 406.156 445.633 424.929 445.633C443.702 445.633 458.921 430.414 458.921 411.641Z" fill="#F05023"/>
<path d="M227.983 525.544C227.983 506.771 212.765 491.552 193.992 491.552C175.219 491.552 160 506.771 160 525.544C160 544.317 175.219 559.535 193.992 559.535C212.765 559.535 227.983 544.317 227.983 525.544Z" fill="#F05023"/>
<path d="M343.382 525.544C343.382 506.771 328.163 491.552 309.39 491.552C290.617 491.552 275.398 506.771 275.398 525.544C275.398 544.317 290.617 559.535 309.39 559.535C328.163 559.535 343.382 544.317 343.382 525.544Z" fill="#F05023"/>
<path d="M458.921 525.544C458.921 506.771 443.702 491.552 424.929 491.552C406.156 491.552 390.938 506.771 390.938 525.544C390.938 544.317 406.156 559.535 424.929 559.535C443.702 559.535 458.921 544.317 458.921 525.544Z" fill="#F05023"/>
<path d="M574.319 183.992C574.319 165.219 559.101 150 540.328 150C521.555 150 506.336 165.219 506.336 183.992C506.336 202.765 521.555 217.983 540.328 217.983C559.101 217.983 574.319 202.765 574.319 183.992Z" fill="#F05023"/>
<path d="M574.319 297.884C574.319 279.111 559.101 263.892 540.328 263.892C521.555 263.892 506.336 279.111 506.336 297.884C506.336 316.657 521.555 331.875 540.328 331.875C559.101 331.875 574.319 316.657 574.319 297.884Z" fill="#F05023"/>
<path d="M574.319 411.641C574.319 392.868 559.101 377.65 540.328 377.65C521.555 377.65 506.336 392.868 506.336 411.641C506.336 430.414 521.555 445.633 540.328 445.633C559.101 445.633 574.319 430.414 574.319 411.641Z" fill="#F05023"/>
<path d="M574.319 525.544C574.319 506.771 559.101 491.552 540.328 491.552C521.555 491.552 506.336 506.771 506.336 525.544C506.336 544.317 521.555 559.535 540.328 559.535C559.101 559.535 574.319 544.317 574.319 525.544Z" fill="#F05023"/>
<path d="M404.947 297.885H329.211C318.26 297.885 309.383 306.763 309.383 317.714V391.958C309.383 402.909 318.26 411.787 329.211 411.787H404.947C415.898 411.787 424.775 402.909 424.775 391.958V317.714C424.775 306.763 415.898 297.885 404.947 297.885Z" fill="#F05023"/>
<path d="M404.953 426.557H329.218C309.985 426.557 294.48 410.903 294.48 391.82V317.725C294.48 298.493 310.135 282.988 329.218 282.988H404.953C424.185 282.988 439.69 298.642 439.69 317.725V391.82C439.69 411.053 424.036 426.557 404.953 426.557ZM329.367 312.805C326.683 312.805 324.447 315.041 324.447 317.725V391.82C324.447 394.504 326.683 396.74 329.367 396.74H405.102C407.786 396.74 410.022 394.504 410.022 391.82V317.725C410.022 315.041 407.786 312.805 405.102 312.805H329.367Z" fill="#F05023"/>
</svg>
